<?xml version="1.0" encoding="UTF-8" standalone="no"?>
<!-- Created with Inkscape (http://www.inkscape.org/) -->

<svg
   width="30.48mm"
   height="128.5mm"
   viewBox="0 0 30.480002 128.50002"
   version="1.1"
   id="svg8"
   inkscape:version="1.4.3 (0d15f75, 2025-12-25)"
   sodipodi:docname="MyModule.svg"
   xml:space="preserve"
   xmlns:inkscape="http://www.inkscape.org/namespaces/inkscape"
   xmlns:sodipodi="http://sodipodi.sourceforge.net/DTD/sodipodi-0.dtd"
   xmlns="http://www.w3.org/2000/svg"
   xmlns:svg="http://www.w3.org/2000/svg"
   xmlns:rdf="http://www.w3.org/1999/02/22-rdf-syntax-ns#"
   xmlns:cc="http://creativecommons.org/ns#"
   xmlns:dc="http://purl.org/dc/elements/1.1/"><defs
     id="defs2" /><sodipodi:namedview
     id="base"
     pagecolor="#ffffff"
     bordercolor="#666666"
     borderopacity="1.0"
     inkscape:pageopacity="0.0"
     inkscape:pageshadow="2"
     inkscape:zoom="0.98994949"
     inkscape:cx="339.41126"
     inkscape:cy="271.22596"
     inkscape:document-units="mm"
     inkscape:current-layer="layer1"
     showgrid="false"
     units="mm"
     inkscape:snap-bbox="true"
     inkscape:snap-page="true"
     inkscape:bbox-nodes="false"
     inkscape:snap-bbox-edge-midpoints="false"
     inkscape:window-width="1920"
     inkscape:window-height="1009"
     inkscape:window-x="-8"
     inkscape:window-y="-8"
     inkscape:window-maximized="1"
     inkscape:snap-bbox-midpoints="true"
     inkscape:snap-nodes="false"
     inkscape:showpageshadow="2"
     inkscape:pagecheckerboard="0"
     inkscape:deskcolor="#d1d1d1" /><metadata
     id="metadata5"><rdf:RDF><cc:Work
         rdf:about=""><dc:format>image/svg+xml</dc:format><dc:type
           rdf:resource="http://purl.org/dc/dcmitype/StillImage" /></cc:Work></rdf:RDF></metadata><g
     inkscape:label="Layer 1"
     inkscape:groupmode="layer"
     id="layer1"
     transform="translate(0,-168.49998)"><rect
       style="display:inline;opacity:1;vector-effect:none;fill:#e6e6e6;fill-opacity:1;fill-rule:evenodd;stroke:none;stroke-width:0.64935839;stroke-linecap:butt;stroke-linejoin:miter;stroke-miterlimit:4;stroke-dasharray:none;stroke-dashoffset:0;stroke-opacity:1;paint-order:normal"
       id="rect420"
       width="30.48"
       height="128.5"
       x="5.9211732e-17"
       y="168.49997" /><path
       fill="#ede5c6"
       d="m 1.4241548,168.69227 c 1.3523017,-0.0912 2.9879761,-0.0146 4.3696516,-0.0146 l 8.4335426,-0.002 9.853835,-5.3e-4 c 1.722539,1.5e-4 3.452454,-0.0101 5.174993,0.0129 0.186138,0.005 0.330623,0.0345 0.498537,0.17965 0.71201,0.63309 0.728498,1.4653 0.72546,2.6334 -0.0039,1.68665 0,3.36635 -9.78e-4,5.04357 l -0.0013,16.62312 3.27e-4,73.50663 3.29e-4,18.58261 0.0039,5.8786 c 0.0013,1.11721 0.01344,2.23656 -0.01086,3.35304 -0.02341,1.07479 -0.410027,1.72254 -1.010963,2.00865 -1.459602,0.0726 -3.075402,0.0113 -4.551492,0.0113 l -8.710755,-0.002 -9.7031447,-0.002 c -1.57224,-5.3e-4 -3.1492526,0.01 -4.7214053,0.003 -0.2437149,-0.002 -0.4794476,-0.002 -0.6962184,-0.19482 -0.32910474,-0.28973 -0.56973957,-0.79512 -0.66350243,-1.39326 -0.0935905,-0.60606 -0.0488108,-1.92743 -0.0467704,-2.61399 l 4.291e-5,-3.73335 -0.001355,-17.00242 0.001731,-74.77223 -7.529e-4,-17.4347 1.3026e-4,-5.63395 c 1.3025e-4,-1.0837 -0.006851,-2.16782 0.019696,-3.25073 0.008764,-0.35766 0.0466876,-0.45607 0.15967131,-0.75337 0.23486381,-0.6179 0.45688465,-0.84436 0.87736705,-1.03293 z"
       id="path3"
       style="display:inline;stroke-width:0.0558508" /><path
       d="M 6.6383752,174.37991 H 6.2973105 v -2.21003 l -0.7131352,1.50379 H 5.3809145 l -0.7079676,-1.50379 v 2.21003 H 4.3542754 v -2.56487 h 0.4650882 l 0.6838519,1.42799 0.6614587,-1.42799 h 0.473701 z m 2.3030477,-0.96118 q 0,0.47026 -0.2411568,0.74242 -0.2411568,0.27216 -0.6459558,0.27216 -0.4082441,0 -0.6494009,-0.27216 -0.2394343,-0.27216 -0.2394343,-0.74242 0,-0.47025 0.2394343,-0.74242 0.2411568,-0.27388 0.6494009,-0.27388 0.404799,0 0.6459558,0.27388 0.2411568,0.27217 0.2411568,0.74242 z m -0.3341744,0 q 0,-0.37379 -0.1464167,-0.55466 -0.1464167,-0.18259 -0.4065215,-0.18259 -0.26355,0 -0.4099667,0.18259 -0.1446941,0.18087 -0.1446941,0.55466 0,0.36174 0.1464167,0.54949 0.1464166,0.18604 0.4082441,0.18604 0.2583823,0 0.404799,-0.18431 0.1481392,-0.18604 0.1481392,-0.55122 z m 1.8345145,0.94396 q -0.0913,0.0241 -0.199816,0.0396 -0.106798,0.0155 -0.191203,0.0155 -0.2945556,0 -0.4478625,-0.15848 -0.1533068,-0.15847 -0.1533068,-0.50815 v -1.02319 H 9.230811 v -0.27216 h 0.2187637 v -0.55294 h 0.3238392 v 0.55294 h 0.6683491 v 0.27216 H 9.7734139 v 0.87678 q 0,0.15158 0.00689,0.23771 0.00689,0.0844 0.048231,0.15847 0.037896,0.0689 0.103353,0.10163 0.067179,0.031 0.2032611,0.031 0.07924,0 0.165364,-0.0224 0.08613,-0.0241 0.124023,-0.0396 h 0.01723 z m 1.999879,0.0172 h -0.323839 v -1.09554 q 0,-0.13263 -0.0155,-0.24804 -0.0155,-0.11714 -0.05684,-0.18259 -0.04306,-0.0724 -0.124023,-0.1068 -0.08096,-0.0362 -0.210151,-0.0362 -0.132637,0 -0.277331,0.0655 -0.144694,0.0655 -0.27733,0.16709 v 1.4366 h -0.323839 v -2.68028 h 0.323839 v 0.96979 q 0.151584,-0.12574 0.313504,-0.19637 0.161919,-0.0706 0.332452,-0.0706 0.311781,0 0.475423,0.18776 0.163642,0.18775 0.163642,0.54088 z m 2.234146,-0.92845 H 13.25813 q 0,0.17742 0.0534,0.31006 0.0534,0.13091 0.146417,0.21532 0.08957,0.0827 0.211874,0.12402 0.124023,0.0413 0.272162,0.0413 0.196371,0 0.394464,-0.0775 0.199816,-0.0792 0.284221,-0.15503 h 0.01723 v 0.35312 q -0.163642,0.0689 -0.334174,0.11541 -0.170533,0.0465 -0.358291,0.0465 -0.478868,0 -0.747586,-0.25838 -0.268717,-0.26011 -0.268717,-0.73725 0,-0.47198 0.256659,-0.74931 0.258383,-0.27733 0.678685,-0.27733 0.389296,0 0.599447,0.22737 0.211873,0.22738 0.211873,0.64596 z m -0.315226,-0.24805 q -0.0017,-0.25493 -0.129191,-0.39446 -0.125747,-0.13953 -0.384129,-0.13953 -0.260105,0 -0.415134,0.15331 -0.153307,0.15331 -0.173978,0.38068 z m 2.00677,-0.39446 h -0.01723 q -0.07235,-0.0172 -0.141249,-0.0241 -0.06718,-0.009 -0.160197,-0.009 -0.149862,0 -0.289388,0.0672 -0.139527,0.0655 -0.268718,0.17053 v 1.36598 h -0.323839 v -1.92408 h 0.323839 v 0.28422 q 0.192926,-0.15503 0.339342,-0.21877 0.148139,-0.0654 0.301446,-0.0654 0.08441,0 0.122301,0.005 0.0379,0.003 0.113689,0.0155 z m 1.968873,-0.69074 h -1.29708 v 0.72347 h 1.114489 v 0.30317 h -1.114489 v 1.23506 h -0.341064 v -2.56487 h 1.638144 z m 1.958538,2.2617 h -0.323839 v -0.21359 q -0.163643,0.12919 -0.313504,0.19809 -0.149862,0.0689 -0.33073,0.0689 -0.303168,0 -0.471978,-0.18431 -0.16881,-0.18604 -0.16881,-0.54433 v -1.24884 h 0.323839 v 1.09554 q 0,0.14641 0.01378,0.25149 0.01378,0.10335 0.05857,0.17742 0.04651,0.0758 0.120579,0.11025 0.07407,0.0344 0.215318,0.0344 0.125746,0 0.273886,-0.0655 0.149861,-0.0655 0.279053,-0.16709 v -1.4366 h 0.323839 z m 2.032608,0 h -1.553739 v -0.23943 l 1.121379,-1.41421 h -1.097264 v -0.27044 h 1.500341 v 0.23082 l -1.126547,1.41938 h 1.15583 z m 1.853462,0 h -1.553739 v -0.23943 l 1.121379,-1.41421 H 22.65119 v -0.27044 h 1.50034 v 0.23082 l -1.126547,1.41938 h 1.15583 z m 2.048111,-0.92845 h -1.417658 q 0,0.17742 0.0534,0.31006 0.0534,0.13091 0.146417,0.21532 0.08957,0.0827 0.211873,0.12402 0.124024,0.0413 0.272163,0.0413 0.196371,0 0.394464,-0.0775 0.199816,-0.0792 0.28422,-0.15503 h 0.01723 v 0.35312 q -0.163642,0.0689 -0.334175,0.11541 -0.170532,0.0465 -0.35829,0.0465 -0.478868,0 -0.747586,-0.25838 -0.268718,-0.26011 -0.268718,-0.73725 0,-0.47198 0.25666,-0.74931 0.258383,-0.27733 0.678684,-0.27733 0.389297,0 0.599447,0.22737 0.211874,0.22738 0.211874,0.64596 z m -0.315226,-0.24805 q -0.0017,-0.25493 -0.129192,-0.39446 -0.125746,-0.13953 -0.384128,-0.13953 -0.260105,0 -0.415134,0.15331 -0.153307,0.15331 -0.173978,0.38068 z m 2.006768,-0.39446 h -0.01722 q -0.07235,-0.0172 -0.141249,-0.0241 -0.06718,-0.009 -0.160197,-0.009 -0.149862,0 -0.289388,0.0672 -0.139527,0.0655 -0.268718,0.17053 v 1.36598 H 26.71985 v -1.92408 h 0.323839 v 0.28422 q 0.192926,-0.15503 0.339342,-0.21877 0.148139,-0.0654 0.301446,-0.0654 0.08441,0 0.122301,0.005 0.0379,0.003 0.113688,0.0155 z"
       id="text1"
       style="font-size:3.52778px;white-space:pre;inline-size:27.624;display:inline;stroke-width:0.264583"
       transform="translate(-0.26726953,4.2763125)"
       aria-label="MotherFuzzer" /><path
       d="m 12.400441,208.09085 q 0,0.34967 -0.153306,0.63389 -0.151584,0.28422 -0.404798,0.44097 -0.175699,0.10852 -0.39274,0.15676 -0.215318,0.0482 -0.568439,0.0482 h -0.647677 v -2.56487 h 0.640786 q 0.375515,0 0.596001,0.0551 0.222208,0.0534 0.375514,0.14814 0.261827,0.16364 0.408243,0.4358 0.146416,0.27216 0.146416,0.64596 z m -0.356566,-0.005 q 0,-0.30145 -0.105075,-0.50815 -0.105076,-0.20671 -0.313503,-0.32556 -0.151584,-0.0861 -0.322116,-0.11886 -0.170532,-0.0344 -0.408243,-0.0344 h -0.320393 v 1.9792 h 0.320393 q 0.246324,0 0.428913,-0.0362 0.184313,-0.0362 0.337619,-0.13436 0.191202,-0.1223 0.285942,-0.32211 0.09646,-0.19982 0.09646,-0.49954 z m 2.082556,-0.28594 h -0.01723 q -0.07235,-0.0172 -0.141249,-0.0241 -0.06718,-0.009 -0.160196,-0.009 -0.149861,0 -0.289388,0.0672 -0.139526,0.0654 -0.268716,0.17053 v 1.36598 h -0.323839 v -1.92408 h 0.323839 v 0.28422 q 0.192925,-0.15503 0.339341,-0.21877 0.148139,-0.0654 0.301445,-0.0654 0.08441,0 0.122301,0.005 0.0379,0.003 0.113688,0.0155 z m 0.652843,-0.67524 h -0.365179 v -0.3359 h 0.365179 z m -0.02067,2.2462 h -0.323838 v -1.92408 h 0.323838 z m 2.304764,-1.92408 -0.77859,1.92408 h -0.325561 l -0.773422,-1.92408 h 0.351399 l 0.596,1.53134 0.590833,-1.53134 z m 2.003319,0.99563 h -1.417654 q 0,0.17742 0.0534,0.31005 0.0534,0.13092 0.146416,0.21532 0.08957,0.0827 0.211873,0.12402 0.124023,0.0413 0.272162,0.0413 0.19637,0 0.394462,-0.0775 0.199816,-0.0792 0.28422,-0.15503 h 0.01723 v 0.35312 q -0.163642,0.0689 -0.334174,0.11541 -0.170532,0.0465 -0.358289,0.0465 -0.478867,0 -0.747584,-0.25838 -0.268717,-0.2601 -0.268717,-0.73725 0,-0.47197 0.256659,-0.7493 0.258382,-0.27733 0.678682,-0.27733 0.389295,0 0.599446,0.22737 0.211873,0.22738 0.211873,0.64596 z m -0.315226,-0.24805 q -0.0017,-0.25494 -0.129191,-0.39446 -0.125745,-0.13953 -0.384127,-0.13953 -0.260104,0 -0.415133,0.15331 -0.153307,0.1533 -0.173977,0.38068 z"
       id="text2"
       style="font-size:3.52777px;display:inline;stroke-width:0.264583"
       aria-label="Drive" /><path
       d="m 12.864632,227.17572 h -0.916393 v 2.2617 h -0.341064 v -2.2617 h -0.916393 v -0.30316 h 2.17385 z m 1.579573,1.30052 q 0,0.47026 -0.241156,0.74242 -0.241156,0.27216 -0.645954,0.27216 -0.408243,0 -0.649399,-0.27216 -0.239434,-0.27216 -0.239434,-0.74242 0,-0.47025 0.239434,-0.74241 0.241156,-0.27389 0.649399,-0.27389 0.404798,0 0.645954,0.27389 0.241156,0.27216 0.241156,0.74241 z m -0.334174,0 q 0,-0.37379 -0.146416,-0.55465 -0.146416,-0.18259 -0.40652,-0.18259 -0.26355,0 -0.409966,0.18259 -0.144693,0.18086 -0.144693,0.55465 0,0.36174 0.146416,0.5495 0.146416,0.18603 0.408243,0.18603 0.258381,0 0.404798,-0.18431 0.148138,-0.18604 0.148138,-0.55122 z m 2.44429,0.96118 h -0.323838 v -1.09553 q 0,-0.13264 -0.0155,-0.24805 -0.0155,-0.11713 -0.05684,-0.18259 -0.04306,-0.0724 -0.124023,-0.1068 -0.08096,-0.0362 -0.210151,-0.0362 -0.132635,0 -0.277329,0.0655 -0.144694,0.0654 -0.27733,0.16708 v 1.4366 h -0.323838 v -1.92408 h 0.323838 v 0.2136 q 0.151584,-0.12575 0.313503,-0.19637 0.161919,-0.0706 0.332451,-0.0706 0.311781,0 0.475422,0.18776 0.163642,0.18776 0.163642,0.54088 z m 2.23414,-0.92845 h -1.417654 q 0,0.17742 0.0534,0.31006 0.0534,0.13091 0.146416,0.21532 0.08957,0.0827 0.211873,0.12402 0.124023,0.0413 0.272162,0.0413 0.19637,0 0.394463,-0.0775 0.199815,-0.0792 0.284219,-0.15503 h 0.01723 v 0.35312 q -0.163642,0.0689 -0.334174,0.11541 -0.170532,0.0465 -0.358289,0.0465 -0.478867,0 -0.747584,-0.25838 -0.268717,-0.26011 -0.268717,-0.73725 0,-0.47198 0.256659,-0.74931 0.258382,-0.27733 0.678682,-0.27733 0.389295,0 0.599446,0.22738 0.211873,0.22737 0.211873,0.64595 z m -0.315226,-0.24804 q -0.0017,-0.25494 -0.129191,-0.39447 -0.125745,-0.13952 -0.384127,-0.13952 -0.260104,0 -0.415133,0.1533 -0.153306,0.15331 -0.173977,0.38069 z"
       id="text3"
       style="font-size:3.52777px;display:inline;stroke-width:0.264583"
       aria-label="Tone" /><path
       d="m 11.18667,247.18506 -0.933619,2.56486 H 9.7982998 l -0.9336189,-2.56486 h 0.3651794 l 0.8044277,2.25653 0.804428,-2.25653 z m 1.831064,1.60368 q 0,0.47026 -0.241156,0.74242 -0.241156,0.27216 -0.645954,0.27216 -0.408243,0 -0.649399,-0.27216 -0.239433,-0.27216 -0.239433,-0.74242 0,-0.47025 0.239433,-0.74241 0.241156,-0.27389 0.649399,-0.27389 0.404798,0 0.645954,0.27389 0.241156,0.27216 0.241156,0.74241 z m -0.334173,0 q 0,-0.37379 -0.146416,-0.55465 -0.146417,-0.18259 -0.406521,-0.18259 -0.263549,0 -0.409965,0.18259 -0.144694,0.18086 -0.144694,0.55465 0,0.36174 0.146416,0.5495 0.146417,0.18603 0.408243,0.18603 0.258382,0 0.404798,-0.18431 0.148139,-0.18604 0.148139,-0.55122 z m 1.162717,0.96118 H 13.52244 v -2.68027 h 0.323838 z m 2.235862,0 h -0.323838 v -0.21359 q -0.163642,0.12919 -0.313503,0.19809 -0.149862,0.0689 -0.330729,0.0689 -0.303167,0 -0.471977,-0.18431 -0.168809,-0.18603 -0.168809,-0.54432 v -1.24885 h 0.323838 v 1.09554 q 0,0.14642 0.01378,0.25149 0.01378,0.10335 0.05857,0.17742 0.04651,0.0758 0.120578,0.11025 0.07407,0.0344 0.215318,0.0344 0.125746,0 0.273885,-0.0655 0.149861,-0.0655 0.279052,-0.16709 v -1.4366 h 0.323838 z m 3.445088,0 H 19.20339 v -1.09553 q 0,-0.12403 -0.01206,-0.23944 -0.01033,-0.11541 -0.04651,-0.18431 -0.03962,-0.0741 -0.113688,-0.11197 -0.07407,-0.0379 -0.213595,-0.0379 -0.136081,0 -0.272162,0.0689 -0.136081,0.0672 -0.272162,0.17225 0.0052,0.0396 0.0086,0.093 0.0034,0.0517 0.0034,0.10335 v 1.23162 h -0.323838 v -1.09553 q 0,-0.12747 -0.01206,-0.24116 -0.01034,-0.11541 -0.04651,-0.18431 -0.03962,-0.0741 -0.113688,-0.11025 -0.07407,-0.0379 -0.213595,-0.0379 -0.132636,0 -0.266995,0.0655 -0.132635,0.0654 -0.265271,0.16708 v 1.4366 h -0.323839 v -1.92408 h 0.323839 v 0.2136 q 0.151583,-0.12575 0.301445,-0.19637 0.151584,-0.0706 0.322116,-0.0706 0.19637,0 0.332451,0.0827 0.137803,0.0827 0.204982,0.22909 0.19637,-0.16536 0.358289,-0.23771 0.16192,-0.0741 0.346232,-0.0741 0.316948,0 0.466809,0.19293 0.151584,0.1912 0.151584,0.53571 z m 2.234139,-0.92845 h -1.417653 q 0,0.17742 0.0534,0.31006 0.0534,0.13091 0.146417,0.21532 0.08957,0.0827 0.211873,0.12402 0.124023,0.0413 0.272162,0.0413 0.19637,0 0.394462,-0.0775 0.199815,-0.0792 0.28422,-0.15503 h 0.01722 v 0.35312 q -0.163641,0.0689 -0.334173,0.11541 -0.170532,0.0465 -0.358289,0.0465 -0.478868,0 -0.747584,-0.25838 -0.268717,-0.26011 -0.268717,-0.73725 0,-0.47198 0.256659,-0.74931 0.258381,-0.27733 0.678682,-0.27733 0.389295,0 0.599445,0.22738 0.211873,0.22737 0.211873,0.64595 z m -0.315225,-0.24804 q -0.0017,-0.25494 -0.129191,-0.39447 -0.125746,-0.13952 -0.384127,-0.13952 -0.260105,0 -0.415133,0.1533 -0.153307,0.15331 -0.173977,0.38069 z"
       id="text4"
       style="font-size:3.52777px;display:inline;stroke-width:0.264583"
       aria-label="Volume" /><path
       d="M 6.3269651,272.20053 H 5.3141092 v -0.26183 h 0.3358961 v -2.04121 H 5.3141092 v -0.26183 h 1.0128559 v 0.26183 H 5.991069 v 2.04121 h 0.3358961 z m 2.1635152,0 H 8.166642 v -1.09554 q 0,-0.13263 -0.015503,-0.24804 -0.015503,-0.11714 -0.056844,-0.18259 -0.043064,-0.0723 -0.1240232,-0.1068 -0.08096,-0.0362 -0.2101504,-0.0362 -0.1326358,0 -0.2773295,0.0654 -0.1446937,0.0655 -0.2773296,0.16709 v 1.4366 H 6.8816242 v -1.92408 h 0.3238383 v 0.21359 q 0.1515839,-0.12574 0.313503,-0.19637 0.1619191,-0.0706 0.332451,-0.0706 0.3117804,0 0.4754221,0.18776 0.1636417,0.18776 0.1636417,0.54088 z m 2.3168217,-0.98529 q 0,0.23426 -0.06718,0.42891 -0.06718,0.19292 -0.18948,0.32728 -0.113688,0.12747 -0.268717,0.1981 -0.153306,0.0689 -0.3255608,0.0689 -0.1498613,0 -0.2721619,-0.0327 -0.1205781,-0.0327 -0.2463238,-0.10163 v 0.80615 H 9.1140412 v -2.63377 h 0.3238383 v 0.20154 q 0.1291908,-0.10852 0.2893874,-0.18087 0.1619191,-0.0741 0.3445091,-0.0741 0.347954,0 0.540878,0.26355 0.194648,0.26183 0.194648,0.72864 z m -0.334174,0.009 q 0,-0.34796 -0.118855,-0.52021 -0.118856,-0.17225 -0.3651795,-0.17225 -0.139526,0 -0.2807746,0.0603 -0.1412486,0.0603 -0.2704394,0.15848 v 1.09037 q 0.1378035,0.062 0.2359885,0.0844 0.099908,0.0224 0.2256533,0.0224 0.2704397,0 0.4220237,-0.18259 0.151583,-0.18259 0.151583,-0.54088 z m 2.433955,0.97668 h -0.323838 v -0.21359 q -0.163642,0.12919 -0.313503,0.19809 -0.149862,0.0689 -0.330729,0.0689 -0.303167,0 -0.471977,-0.18431 -0.168809,-0.18604 -0.168809,-0.54433 v -1.24884 h 0.323838 v 1.09554 q 0,0.14641 0.01378,0.25149 0.01378,0.10335 0.05857,0.17742 0.04651,0.0758 0.120578,0.11024 0.07407,0.0344 0.215318,0.0344 0.125746,0 0.273885,-0.0654 0.149861,-0.0655 0.279052,-0.16709 v -1.4366 h 0.323838 z m 1.636416,-0.0172 q -0.09129,0.0241 -0.199815,0.0396 -0.106797,0.0155 -0.191202,0.0155 -0.294555,0 -0.447861,-0.15848 -0.153307,-0.15847 -0.153307,-0.50815 v -1.02319 h -0.218763 v -0.27216 h 0.218763 v -0.55294 h 0.323838 v 0.55294 h 0.668347 v 0.27216 h -0.668347 v 0.87678 q 0,0.15158 0.0069,0.23771 0.0069,0.0844 0.04823,0.15847 0.0379,0.0689 0.103352,0.10163 0.06718,0.031 0.203261,0.031 0.07924,0 0.165364,-0.0224 0.08613,-0.0241 0.124023,-0.0396 h 0.01722 z"
       id="text5"
       style="font-size:3.52777px;stroke-width:0.264583"
       aria-label="Input" /><path
       d="m 17.490898,269.93025 q 0.156752,0.17225 0.239434,0.42202 0.0844,0.24977 0.0844,0.56672 0,0.31695 -0.08613,0.56844 -0.08441,0.24977 -0.237711,0.41685 -0.158474,0.17398 -0.375515,0.26183 -0.215318,0.0879 -0.492647,0.0879 -0.27044,0 -0.492648,-0.0896 -0.220485,-0.0896 -0.375514,-0.26011 -0.155029,-0.17053 -0.239434,-0.41857 -0.08268,-0.24805 -0.08268,-0.56672 0,-0.3135 0.08268,-0.56155 0.08268,-0.24977 0.241156,-0.42719 0.151584,-0.16881 0.375515,-0.25838 0.225653,-0.0896 0.490925,-0.0896 0.275607,0 0.49437,0.0913 0.220486,0.0896 0.373792,0.25666 z m -0.03101,0.98874 q 0,-0.49954 -0.22393,-0.76998 -0.223931,-0.27216 -0.611504,-0.27216 -0.391017,0 -0.614948,0.27216 -0.222208,0.27044 -0.222208,0.76998 0,0.5047 0.227376,0.77342 0.227376,0.267 0.60978,0.267 0.382405,0 0.608058,-0.267 0.227376,-0.26872 0.227376,-0.77342 z m 2.464961,1.28157 h -0.323839 v -0.21359 q -0.163641,0.12919 -0.313503,0.19809 -0.149861,0.0689 -0.330728,0.0689 -0.303168,0 -0.471977,-0.18431 -0.168809,-0.18604 -0.168809,-0.54433 v -1.24884 h 0.323838 v 1.09554 q 0,0.14641 0.01378,0.25149 0.01378,0.10335 0.05857,0.17742 0.04651,0.0758 0.120578,0.11024 0.07407,0.0345 0.215318,0.0345 0.125745,0 0.273884,-0.0655 0.149862,-0.0655 0.279052,-0.16709 v -1.4366 h 0.323839 z m 1.636416,-0.0172 q -0.09129,0.0241 -0.199815,0.0396 -0.106798,0.0155 -0.191202,0.0155 -0.294555,0 -0.447862,-0.15848 -0.153306,-0.15847 -0.153306,-0.50815 v -1.02319 h -0.218763 v -0.27216 h 0.218763 v -0.55294 h 0.323838 v 0.55294 h 0.668347 v 0.27216 h -0.668347 v 0.87678 q 0,0.15158 0.0069,0.23771 0.0069,0.0844 0.04823,0.15847 0.0379,0.0689 0.103352,0.10163 0.06718,0.031 0.20326,0.031 0.07924,0 0.165365,-0.0224 0.08613,-0.0241 0.124023,-0.0396 h 0.01722 z m 2.084278,-0.96807 q 0,0.23426 -0.06718,0.42891 -0.06718,0.19292 -0.18948,0.32728 -0.113688,0.12747 -0.268717,0.1981 -0.153306,0.0689 -0.32556,0.0689 -0.149862,0 -0.272162,-0.0327 -0.120578,-0.0327 -0.246324,-0.10163 v 0.80615 h -0.323838 v -2.63377 h 0.323838 v 0.20154 q 0.129191,-0.10852 0.289387,-0.18087 0.161919,-0.0741 0.344509,-0.0741 0.347954,0 0.540879,0.26355 0.194647,0.26183 0.194647,0.72864 z m -0.334173,0.009 q 0,-0.34795 -0.118856,-0.52021 -0.118855,-0.17225 -0.365179,-0.17225 -0.139526,0 -0.280775,0.0603 -0.141248,0.0603 -0.270439,0.15847 v 1.09037 q 0.137803,0.062 0.235988,0.0844 0.09991,0.0224 0.225654,0.0224 0.270439,0 0.422023,-0.18259 0.151584,-0.18259 0.151584,-0.54088 z m 2.433954,0.97668 H 25.42149 v -0.21359 q -0.163642,0.12919 -0.313503,0.19809 -0.149861,0.0689 -0.330728,0.0689 -0.303168,0 -0.471977,-0.18431 -0.16881,-0.18604 -0.16881,-0.54433 v -1.24884 h 0.323839 v 1.09554 q 0,0.14641 0.01378,0.25149 0.01378,0.10335 0.05857,0.17742 0.04651,0.0758 0.120579,0.11024 0.07407,0.0345 0.215318,0.0345 0.125745,0 0.273884,-0.0655 0.149861,-0.0655 0.279052,-0.16709 v -1.4366 h 0.323838 z m 1.636417,-0.0172 q -0.09129,0.0241 -0.199815,0.0396 -0.106798,0.0155 -0.191202,0.0155 -0.294555,0 -0.447862,-0.15848 -0.153306,-0.15847 -0.153306,-0.50815 v -1.02319 h -0.218763 v -0.27216 h 0.218763 v -0.55294 h 0.323838 v 0.55294 h 0.668347 v 0.27216 h -0.668347 v 0.87678 q 0,0.15158 0.0069,0.23771 0.0069,0.0844 0.04823,0.15847 0.0379,0.0689 0.103352,0.10163 0.06718,0.031 0.20326,0.031 0.07924,0 0.165365,-0.0224 0.08613,-0.0241 0.124023,-0.0396 h 0.01722 z"
       id="text6"
       style="font-size:3.52777px;stroke-width:0.264583"
       aria-label="Output" /></g><g
     inkscape:groupmode="layer"
     id="layer2"
     inkscape:label="components" /></svg>
